<svg width="407" height="295" viewBox="0 0 407 295" fill="none" xmlns="http://www.w3.org/2000/svg">
<g clip-path="url(#clip0_103_233)">
<path d="M-7.69671 162.528L-9.92224 273.799C15.6529 269.156 36.2533 245.012 36.772 219.072C37.2908 193.131 17.673 168.185 -7.69671 162.528Z" fill="#A08CFF"/>
<path d="M324.527 -64.8945C326.686 -51.6979 320.45 -37.5046 309.262 -30.1505C298.074 -22.7965 282.14 -21.6754 270.847 -28.8681C261.17 -21.0302 248.914 -16.4182 236.46 -15.9294C224.007 -15.4405 210.414 -19.3425 200.151 -26.3979C197.709 -16.476 191.641 -7.48508 183.345 -1.50011C175.048 4.48388 166.042 7.65708 155.837 6.85756C145.751 40.7831 122.516 70.6293 92.0732 88.7654C61.63 106.902 24.2817 113.147 -10.422 105.905V-74.4848L324.527 -64.8945Z" fill="#A08CFF"/>
<path d="M190.743 88.3199C190.694 88.0133 190.635 87.7086 190.57 87.4049C189.05 86.921 187.529 86.4371 186.008 85.9532C187.273 85.5629 188.538 85.1726 189.802 84.7813C189.263 83.3446 188.546 81.9735 187.638 80.723C187.476 80.4979 187.297 80.2839 187.123 80.0678C185.466 80.3088 183.809 80.5517 182.152 80.7927C183.331 80.027 184.511 79.2613 185.691 78.4956C181.477 74.4124 175.202 72.3832 169.333 73.4137C168.998 79.2643 171.067 85.3269 174.474 90.132C175.266 88.8596 176.059 87.5861 176.851 86.3126C176.733 88.4245 176.616 90.5363 176.499 92.6481C177.168 93.3799 177.875 94.0669 178.618 94.7091C183.699 99.0991 191.79 94.8894 190.743 88.3199Z" fill="#FFB13C"/>
<path d="M164.044 71.2573C171.954 74.0312 178.703 79.829 182.545 87.1492" stroke="#2B2C34" stroke-width="1.33333" stroke-miterlimit="10" stroke-linecap="round" stroke-linejoin="round"/>
<path d="M42.1273 154.443C42.1762 154.75 42.235 155.054 42.2999 155.358C43.8201 155.842 45.3404 156.326 46.8617 156.81C45.5968 157.2 44.3319 157.59 43.068 157.982C43.6067 159.418 44.3239 160.789 45.2317 162.04C45.3943 162.265 45.5718 162.479 45.7464 162.695C47.4043 162.454 49.0613 162.212 50.7182 161.97C49.5391 162.736 48.359 163.502 47.1789 164.267C51.3925 168.35 57.6681 170.38 63.5367 169.349C63.8719 163.499 61.8029 157.436 58.3963 152.631C57.6033 153.904 56.8112 155.177 56.0192 156.45C56.1369 154.338 56.2536 152.227 56.3713 150.115C55.7019 149.383 54.9947 148.696 54.2515 148.054C49.171 143.664 41.0799 147.873 42.1273 154.443Z" fill="#FF7AD7"/>
<path d="M68.8255 171.506C60.9159 168.732 54.1665 162.934 50.325 155.614" stroke="#2B2C34" stroke-width="1.33333" stroke-miterlimit="10" stroke-linecap="round" stroke-linejoin="round"/>
<path d="M279 -0.273367C278.77 -0.483454 278.535 -0.685575 278.295 -0.883714C276.802 -0.320164 275.31 0.243386 273.816 0.806936C274.565 -0.283324 275.313 -1.37358 276.061 -2.46384C274.744 -3.2564 273.33 -3.88566 271.839 -4.30285C271.572 -4.37852 271.3 -4.43627 271.028 -4.498C269.879 -3.28129 268.731 -2.06358 267.583 -0.846873C268.031 -2.17809 268.479 -3.51029 268.927 -4.84151C263.084 -5.42995 256.903 -3.13094 252.945 1.31572C256.322 6.10888 261.717 9.5778 267.376 11.2326C267.206 9.74308 267.034 8.25356 266.862 6.76503C268.084 8.49252 269.307 10.221 270.529 11.9485C271.509 12.1068 272.491 12.2074 273.472 12.2502C280.186 12.5419 283.909 4.22607 279 -0.273367Z" fill="#6246EA"/>
<path d="M247.458 2.90392C255.383 0.174781 264.28 0.535214 271.846 3.89062" stroke="#2B2C34" stroke-width="1.33333" stroke-miterlimit="10" stroke-linecap="round" stroke-linejoin="round"/>
<path d="M118.449 120.877C118.449 120.051 117.779 119.383 116.953 119.383C116.127 119.383 115.457 120.051 115.457 120.877C115.457 121.701 116.127 122.37 116.953 122.37C117.779 122.37 118.449 121.701 118.449 120.877Z" fill="#E45858"/>
<path d="M70.3218 85.4242C70.3218 84.5998 69.6515 83.9307 68.8255 83.9307C67.9995 83.9307 67.3292 84.5998 67.3292 85.4242C67.3292 86.2486 67.9995 86.9177 68.8255 86.9177C69.6515 86.9177 70.3218 86.2486 70.3218 85.4242Z" fill="#6246EA"/>
<path d="M61.0716 213.647C61.0716 212.822 60.4013 212.153 59.5753 212.153C58.7493 212.153 58.079 212.822 58.079 213.647C58.079 214.472 58.7493 215.14 59.5753 215.14C60.4013 215.14 61.0716 214.472 61.0716 213.647Z" fill="#2B2C34"/>
<path d="M202.901 37.4136C202.901 36.5892 202.231 35.9201 201.405 35.9201C200.579 35.9201 199.908 36.5892 199.908 37.4136C199.908 38.238 200.579 38.9071 201.405 38.9071C202.231 38.9071 202.901 38.238 202.901 37.4136Z" fill="#6246EA"/>
<path d="M21.3044 230.135C21.3044 229.311 20.6341 228.641 19.8081 228.641C18.9822 228.641 18.3118 229.311 18.3118 230.135C18.3118 230.959 18.9822 231.628 19.8081 231.628C20.6341 231.628 21.3044 230.959 21.3044 230.135Z" fill="#6246EA"/>
<path d="M88.8349 111.916L83.6516 120.877H94.0182L88.8349 111.916Z" stroke="#2B2C34" stroke-width="1.33333" stroke-miterlimit="10" stroke-linecap="round" stroke-linejoin="round"/>
<path d="M214.6 35.2237L224.873 36.6156L220.944 27.0403L214.6 35.2237Z" fill="#2B2C34"/>
<path d="M48.9439 110.911C49.8477 117.259 50.7505 123.607 51.6543 129.955C57.2076 135.574 63.0034 140.968 69.0366 146.107C65.4494 128.64 60.5095 111.457 54.3217 94.7329C50.8163 92.1273 47.3119 89.5206 43.8066 86.9149C46.455 87.2774 49.1025 87.6398 51.75 88.0022C48.4033 79.4882 44.7323 71.1007 40.7431 62.8665C35.1269 59.0312 29.5107 55.1968 23.8945 51.3605C27.739 51.6891 31.5846 52.0177 35.4301 52.3462C22.1857 27.1528 5.95157 3.52748 -12.9241 -17.7928L-20.8246 -6.91811C-11.8148 41.9415 11.7533 87.0553 45.3947 123.408C46.5777 119.241 47.7608 115.076 48.9439 110.911Z" fill="#6246EA"/>
<path d="M-2.03592 15.2305C12.7438 42.2112 27.5235 69.1929 42.3031 96.1736" stroke="#2B2C34" stroke-width="1.33333" stroke-miterlimit="10" stroke-linecap="round" stroke-linejoin="round"/>
<path d="M110.887 85.8622C112.167 91.4161 113.448 96.9709 114.728 102.525C127.929 108.798 141.601 114.083 155.631 118.241C147.111 101.074 137.266 84.5778 126.279 68.8621C119.018 66.9574 111.758 65.0527 104.497 63.148C109.934 62.5107 115.37 61.8715 120.806 61.2343C111.401 48.4399 101.225 36.2021 90.3618 24.5926C82.942 24.2521 75.5222 23.9106 68.1034 23.5701C73.2947 21.5827 78.4859 19.5963 83.6782 17.609C53.7956 -12.8506 19.1258 -38.6863 -18.6235 -58.4742L-23.6342 -34.4865C3.63784 22.3912 50.3471 69.5551 106.436 98.4385C107.92 94.2468 109.403 90.054 110.887 85.8622Z" fill="#E45858"/>
<path d="M-5.01947 -32.9182C30.4993 2.06673 66.018 37.0516 101.537 72.0365" stroke="#2B2C34" stroke-width="1.33333" stroke-miterlimit="10" stroke-linecap="round" stroke-linejoin="round"/>
<path d="M103.804 13.7685C105.936 19.0913 108.066 24.4132 110.198 29.7361C121.38 34.0025 132.822 37.5829 144.446 40.4256C144.184 36.5445 143.92 32.6643 143.657 28.7842C145.519 33.0407 147.382 37.2972 149.243 41.5537C158.294 43.6008 167.445 45.2128 176.661 46.3488C169.171 31.6816 159.041 18.486 147.367 6.62753C141.393 7.17216 135.418 7.7158 129.444 8.26043C133.487 5.82801 137.53 3.39459 141.574 0.962166C129.77 -10.1276 116.667 -19.9668 103.196 -28.6142C73.6071 -47.6116 40.9155 -61.1896 8.35249 -74.4848L-8.1759 -54.0596C21.4313 -18.7501 59.8589 8.9803 102.444 26.6415C102.897 22.3512 103.351 18.0598 103.804 13.7685Z" fill="#FFD94B"/>
<path d="M16.1968 -52.8564C53.1639 -31.801 90.1321 -10.7445 127.099 10.3109" stroke="#2B2C34" stroke-width="1.33333" stroke-miterlimit="10" stroke-linecap="round" stroke-linejoin="round"/>
<path d="M19.755 190.178C21.8119 190.096 23.8698 190.013 25.9278 189.93C17.278 161.49 2.69287 134.842 -16.7364 112.312L-35.217 114.616C-24.8754 143.423 -9.10813 170.263 10.9227 193.425C11.7676 190.899 12.6115 188.374 13.4564 185.849C14.2814 190.248 15.1074 194.647 15.9323 199.046C21.0119 204.573 26.3398 209.873 31.9041 214.915C30.5843 207.385 28.8436 199.933 26.7149 192.592C24.3946 191.787 22.0753 190.983 19.755 190.178Z" fill="#FFB13C"/>
<path d="M-7.15912 144.322C0.543954 157.89 8.24802 171.457 15.9511 185.025" stroke="#2B2C34" stroke-width="1.33333" stroke-miterlimit="10" stroke-linecap="round" stroke-linejoin="round"/>
<path d="M18.3736 145.11C18.4714 147.515 18.5692 149.92 18.6669 152.325C22.7948 157.459 27.2279 162.361 31.9832 166.982C31.1502 157.99 29.1342 149.132 26.0747 140.643C23.7285 139.183 21.3823 137.722 19.036 136.263C20.8635 136.375 22.69 136.488 24.5175 136.599C16.4324 116.654 2.54653 99.0165 -15.2777 86.8863C-8.38861 109.088 1.83029 130.273 15.8099 148.67C16.6638 147.483 17.5187 146.296 18.3736 145.11Z" fill="#FFD94B"/>
<path d="M-1.33664 103.926C4.48007 113.124 10.2968 122.322 16.1135 131.52" stroke="#2B2C34" stroke-width="1.33333" stroke-miterlimit="10" stroke-linecap="round" stroke-linejoin="round"/>
</g>
<defs>
<clipPath id="clip0_103_233">
<rect width="407" height="345" fill="white" transform="translate(0 -50)"/>
</clipPath>
</defs>
</svg>
